<svg width="25" height="24" viewBox="0 0 25 24" fill="none" xmlns="http://www.w3.org/2000/svg">
<path d="M4.55 11H7.4C7.3 10.3667 7.10833 9.775 6.825 9.225C6.54167 8.675 6.18333 8.18333 5.75 7.75C5.45 8.23333 5.19583 8.74583 4.9875 9.2875C4.77917 9.82917 4.63333 10.4 4.55 11ZM17.6 11H20.45C20.3667 10.4 20.2208 9.82917 20.0125 9.2875C19.8042 8.74583 19.55 8.23333 19.25 7.75C18.8167 8.18333 18.4583 8.675 18.175 9.225C17.8917 9.775 17.7 10.3667 17.6 11ZM5.75 16.25C6.18333 15.8167 6.54167 15.325 6.825 14.775C7.10833 14.225 7.3 13.6333 7.4 13H4.55C4.63333 13.6 4.77917 14.1708 4.9875 14.7125C5.19583 15.2542 5.45 15.7667 5.75 16.25ZM19.25 16.25C19.55 15.7667 19.8042 15.2542 20.0125 14.7125C20.2208 14.1708 20.3667 13.6 20.45 13H17.6C17.7 13.6333 17.8917 14.225 18.175 14.775C18.4583 15.325 18.8167 15.8167 19.25 16.25ZM9.45 11H11.5V4.05C10.6167 4.18333 9.79583 4.42917 9.0375 4.7875C8.27917 5.14583 7.6 5.61667 7 6.2C7.65 6.83333 8.1875 7.55417 8.6125 8.3625C9.0375 9.17083 9.31667 10.05 9.45 11ZM13.5 11H15.55C15.6833 10.05 15.9625 9.17083 16.3875 8.3625C16.8125 7.55417 17.35 6.83333 18 6.2C17.4 5.61667 16.7208 5.14583 15.9625 4.7875C15.2042 4.42917 14.3833 4.18333 13.5 4.05V11ZM11.5 19.95V13H9.45C9.31667 13.95 9.0375 14.8292 8.6125 15.6375C8.1875 16.4458 7.65 17.1667 7 17.8C7.6 18.3833 8.27917 18.8542 9.0375 19.2125C9.79583 19.5708 10.6167 19.8167 11.5 19.95ZM13.5 19.95C14.3833 19.8167 15.2042 19.5708 15.9625 19.2125C16.7208 18.8542 17.4 18.3833 18 17.8C17.35 17.1667 16.8125 16.4458 16.3875 15.6375C15.9625 14.8292 15.6833 13.95 15.55 13H13.5V19.95ZM12.5 22C11.1167 22 9.81667 21.7375 8.6 21.2125C7.38333 20.6875 6.325 19.975 5.425 19.075C4.525 18.175 3.8125 17.1167 3.2875 15.9C2.7625 14.6833 2.5 13.3833 2.5 12C2.5 10.6167 2.7625 9.31667 3.2875 8.1C3.8125 6.88333 4.525 5.825 5.425 4.925C6.325 4.025 7.38333 3.3125 8.6 2.7875C9.81667 2.2625 11.1167 2 12.5 2C13.8833 2 15.1833 2.2625 16.4 2.7875C17.6167 3.3125 18.675 4.025 19.575 4.925C20.475 5.825 21.1875 6.88333 21.7125 8.1C22.2375 9.31667 22.5 10.6167 22.5 12C22.5 13.3833 22.2375 14.6833 21.7125 15.9C21.1875 17.1167 20.475 18.175 19.575 19.075C18.675 19.975 17.6167 20.6875 16.4 21.2125C15.1833 21.7375 13.8833 22 12.5 22Z" fill="#14448C"/>
</svg>
