<svg width="25" height="24" viewBox="0 0 25 24" fill="none" xmlns="http://www.w3.org/2000/svg">
<path d="M12.3333 22C10.9499 22 9.64992 21.7375 8.43325 21.2125C7.21659 20.6875 6.15825 19.975 5.25825 19.075C4.35825 18.175 3.64575 17.1167 3.12075 15.9C2.59575 14.6833 2.33325 13.3833 2.33325 12C2.33325 10.6167 2.59575 9.31667 3.12075 8.1C3.64575 6.88333 4.35825 5.825 5.25825 4.925C6.15825 4.025 7.21659 3.3125 8.43325 2.7875C9.64992 2.2625 10.9499 2 12.3333 2C13.7166 2 15.0166 2.2625 16.2333 2.7875C17.4499 3.3125 18.5083 4.025 19.4083 4.925C20.3083 5.825 21.0208 6.88333 21.5458 8.1C22.0708 9.31667 22.3333 10.6167 22.3333 12C22.3333 13.3833 22.0708 14.6833 21.5458 15.9C21.0208 17.1167 20.3083 18.175 19.4083 19.075C18.5083 19.975 17.4499 20.6875 16.2333 21.2125C15.0166 21.7375 13.7166 22 12.3333 22ZM17.3333 9.5L18.6833 9.05L19.0833 7.7C18.5499 6.9 17.9083 6.2125 17.1583 5.6375C16.4083 5.0625 15.5833 4.63333 14.6833 4.35L13.3333 5.3V6.7L17.3333 9.5ZM7.33325 9.5L11.3333 6.7V5.3L9.98325 4.35C9.08325 4.63333 8.25825 5.0625 7.50825 5.6375C6.75825 6.2125 6.11659 6.9 5.58325 7.7L5.98325 9.05L7.33325 9.5ZM6.28325 17.2L7.43325 17.1L8.18325 15.75L6.73325 11.4L5.33325 10.9L4.33325 11.65C4.33325 12.7333 4.48325 13.7208 4.78325 14.6125C5.08325 15.5042 5.58325 16.3667 6.28325 17.2ZM12.3333 20C12.7666 20 13.1916 19.9667 13.6083 19.9C14.0249 19.8333 14.4333 19.7333 14.8333 19.6L15.5333 18.1L14.8833 17H9.78325L9.13325 18.1L9.83325 19.6C10.2333 19.7333 10.6416 19.8333 11.0583 19.9C11.4749 19.9667 11.8999 20 12.3333 20ZM10.0833 15H14.5833L15.9833 11L12.3333 8.45L8.73325 11L10.0833 15ZM18.3833 17.2C19.0833 16.3667 19.5833 15.5042 19.8833 14.6125C20.1833 13.7208 20.3333 12.7333 20.3333 11.65L19.3333 10.95L17.9333 11.4L16.4833 15.75L17.2333 17.1L18.3833 17.2Z" fill="#14448C"/>
</svg>
