<svg width="25" height="24" viewBox="0 0 25 24" fill="none" xmlns="http://www.w3.org/2000/svg">
<mask id="mask0_10_1385" style="mask-type:alpha" maskUnits="userSpaceOnUse" x="2" y="2" width="21" height="20">
<path d="M20.2165 9.45C19.6998 8 18.8582 6.7875 17.6915 5.8125C16.5248 4.8375 15.1832 4.25 13.6665 4.05V5.65L20.2165 9.45ZM8.6665 13.15L11.6665 11.4V4.05C11.1332 4.1 10.6165 4.22083 10.1165 4.4125C9.6165 4.60417 9.13317 4.83333 8.6665 5.1V13.15ZM5.3165 15.1L6.6665 14.3V6.75C6.0165 7.48333 5.52067 8.3 5.179 9.2C4.83734 10.1 4.6665 11.0333 4.6665 12C4.6665 12.5333 4.72067 13.0625 4.829 13.5875C4.93734 14.1125 5.09984 14.6167 5.3165 15.1ZM8.6665 18.9L15.6665 14.9L12.6665 13.15L6.3165 16.85C6.64984 17.2667 7.00817 17.65 7.3915 18C7.77484 18.35 8.19984 18.65 8.6665 18.9ZM12.6665 20C13.9165 20 15.0998 19.7167 16.2165 19.15C17.3332 18.5833 18.2665 17.8 19.0165 16.8L17.6665 16.05L11.0665 19.85C11.3332 19.9 11.5998 19.9375 11.8665 19.9625C12.1332 19.9875 12.3998 20 12.6665 20ZM20.0165 15.1C20.2332 14.6167 20.3957 14.1125 20.504 13.5875C20.6123 13.0625 20.6665 12.5333 20.6665 12L13.6665 7.95V11.4L20.0165 15.1ZM12.6665 22C11.2832 22 9.98317 21.7375 8.7665 21.2125C7.54984 20.6875 6.4915 19.975 5.5915 19.075C4.6915 18.175 3.979 17.1167 3.454 15.9C2.929 14.6833 2.6665 13.3833 2.6665 12C2.6665 10.6167 2.929 9.31667 3.454 8.1C3.979 6.88333 4.6915 5.825 5.5915 4.925C6.4915 4.025 7.54984 3.3125 8.7665 2.7875C9.98317 2.2625 11.2832 2 12.6665 2C14.0498 2 15.3498 2.2625 16.5665 2.7875C17.7832 3.3125 18.8415 4.025 19.7415 4.925C20.6415 5.825 21.354 6.88333 21.879 8.1C22.404 9.31667 22.6665 10.6167 22.6665 12C22.6665 13.3833 22.404 14.6833 21.879 15.9C21.354 17.1167 20.6415 18.175 19.7415 19.075C18.8415 19.975 17.7832 20.6875 16.5665 21.2125C15.3498 21.7375 14.0498 22 12.6665 22Z" fill="#5F6368"/>
</mask>
<g mask="url(#mask0_10_1385)">
<path d="M3.6665 19H2.9665C2.80082 19 2.6665 18.8657 2.6665 18.7V2.3C2.6665 2.13431 2.80082 2 2.9665 2H22.3665C22.5322 2 22.6665 2.13431 22.6665 2.3V18.7C22.6665 18.8657 22.5322 19 22.3665 19H21.6665C21.1332 19 20.6123 18.9268 20.104 18.7805C19.6575 18.6519 19.2334 18.4669 18.8319 18.2254C18.7302 18.1643 18.6028 18.1643 18.501 18.2253C18.0995 18.466 17.6755 18.6474 17.229 18.7695C16.7207 18.9085 16.1998 18.978 15.6665 18.978C15.1332 18.978 14.6165 18.9085 14.1165 18.7695C13.6748 18.6467 13.2461 18.4639 12.8304 18.2212C12.7295 18.1623 12.6042 18.1634 12.504 18.2235C12.1016 18.4651 11.6766 18.6471 11.229 18.7695C10.7207 18.9085 10.1998 18.978 9.6665 18.978C9.13317 18.978 8.6165 18.9085 8.1165 18.7695C7.67375 18.6464 7.24406 18.4631 6.82743 18.2195C6.72811 18.1614 6.60488 18.1614 6.50564 18.2196C6.089 18.4639 5.65929 18.6509 5.2165 18.7805C4.7165 18.9268 4.19984 19 3.6665 19Z" fill="#14448C"/>
</g>
<path d="M2.6665 20V22H3.6665C4.18317 22 4.6915 21.9375 5.1915 21.8125C5.6915 21.6875 6.18317 21.5 6.6665 21.25C7.14984 21.5 7.6415 21.6875 8.1415 21.8125C8.6415 21.9375 9.14984 22 9.6665 22C10.1832 22 10.6915 21.9375 11.1915 21.8125C11.6915 21.6875 12.1832 21.5 12.6665 21.25C13.1498 21.5 13.6415 21.6875 14.1415 21.8125C14.6415 21.9375 15.1498 22 15.6665 22C16.1832 22 16.6915 21.9375 17.1915 21.8125C17.6915 21.6875 18.1832 21.5 18.6665 21.25C19.1498 21.5 19.6415 21.6875 20.1415 21.8125C20.6415 21.9375 21.1498 22 21.6665 22H22.6665V20H21.6665C21.1332 20 20.6123 19.9167 20.104 19.75C19.5957 19.5833 19.1165 19.3333 18.6665 19C18.2165 19.3333 17.7373 19.5792 17.229 19.7375C16.7207 19.8958 16.1998 19.975 15.6665 19.975C15.1332 19.975 14.6165 19.8958 14.1165 19.7375C13.6165 19.5792 13.1332 19.3333 12.6665 19C12.2165 19.3333 11.7373 19.5792 11.229 19.7375C10.7207 19.8958 10.1998 19.975 9.6665 19.975C9.13317 19.975 8.6165 19.8958 8.1165 19.7375C7.6165 19.5792 7.13317 19.3333 6.6665 19C6.19984 19.3333 5.7165 19.5833 5.2165 19.75C4.7165 19.9167 4.19984 20 3.6665 20H2.6665Z" fill="#14448C"/>
</svg>
