<svg width="25" height="24" viewBox="0 0 25 24" fill="none" xmlns="http://www.w3.org/2000/svg">
<path d="M4.05 20L2.625 18.6L6.725 14.5C7.24167 13.9833 7.59583 13.3375 7.7875 12.5625C7.97917 11.7875 8.075 10.6 8.075 9C8.075 8.03333 8.29167 7.08333 8.725 6.15C9.15833 5.21667 9.775 4.35 10.575 3.55C12.0917 2.03333 13.7667 1.175 15.6 0.975001C17.4333 0.775001 18.9417 1.28333 20.125 2.5C21.325 3.7 21.825 5.21667 21.625 7.05C21.425 8.88333 20.575 10.55 19.075 12.05C18.275 12.85 17.4083 13.4667 16.475 13.9C15.5417 14.3333 14.5917 14.55 13.625 14.55C12.0083 14.55 10.825 14.6417 10.075 14.825C9.325 15.0083 8.68333 15.3667 8.15 15.9L4.05 20ZM10.925 11.65C11.7083 12.4167 12.7667 12.7 14.1 12.5C15.4333 12.3 16.625 11.675 17.675 10.625C18.7417 9.55833 19.3792 8.3625 19.5875 7.0375C19.7958 5.7125 19.5083 4.675 18.725 3.925C17.925 3.125 16.8792 2.825 15.5875 3.025C14.2958 3.225 13.1083 3.85833 12.025 4.925C10.975 5.975 10.3375 7.1625 10.1125 8.4875C9.8875 9.8125 10.1583 10.8667 10.925 11.65ZM18.625 23C17.525 23 16.5833 22.6083 15.8 21.825C15.0167 21.0417 14.625 20.1 14.625 19C14.625 17.9 15.0167 16.9583 15.8 16.175C16.5833 15.3917 17.525 15 18.625 15C19.725 15 20.6667 15.3917 21.45 16.175C22.2333 16.9583 22.625 17.9 22.625 19C22.625 20.1 22.2333 21.0417 21.45 21.825C20.6667 22.6083 19.725 23 18.625 23ZM18.625 21C19.175 21 19.6458 20.8042 20.0375 20.4125C20.4292 20.0208 20.625 19.55 20.625 19C20.625 18.45 20.4292 17.9792 20.0375 17.5875C19.6458 17.1958 19.175 17 18.625 17C18.075 17 17.6042 17.1958 17.2125 17.5875C16.8208 17.9792 16.625 18.45 16.625 19C16.625 19.55 16.8208 20.0208 17.2125 20.4125C17.6042 20.8042 18.075 21 18.625 21Z" fill="#14448C"/>
</svg>
